<?xml version="1.0" standalone="no"?>
<!DOCTYPE svg PUBLIC "-//W3C//DTD SVG 20010904//EN"
 "http://www.w3.org/TR/2001/REC-SVG-20010904/DTD/svg10.dtd">
<svg version="1.0" xmlns="http://www.w3.org/2000/svg"
 width="200.000000pt" height="200.000000pt" viewBox="0 0 200.000000 200.000000"
 preserveAspectRatio="xMidYMid meet">
<metadata>
Created by potrace 1.14, written by Peter Selinger 2001-2017
</metadata>
<g transform="translate(0.000000,200.000000) scale(0.100000,-0.100000)"
fill="#000000" stroke="none">
<path d="M889 1996 c-2 -2 -24 -7 -49 -10 -55 -8 -119 -23 -165 -40 -11 -4
-29 -11 -40 -15 -168 -62 -368 -225 -472 -384 -155 -239 -202 -557 -122 -832
19 -67 90 -225 102 -225 4 0 7 -4 7 -9 0 -37 163 -217 261 -289 66 -48 228
-134 240 -127 4 3 10 1 13 -4 3 -4 20 -12 38 -16 18 -4 38 -9 43 -11 69 -22
157 -31 270 -29 72 2 141 6 155 9 14 3 41 9 60 12 19 4 40 9 45 13 11 6 32 12
53 13 6 1 12 4 12 8 0 4 6 7 14 7 8 0 40 12 72 28 209 101 401 297 484 494 28
65 41 99 45 114 2 4 3 8 5 10 1 1 3 11 5 22 2 11 11 54 19 95 19 98 14 291 -9
390 -55 237 -188 439 -385 587 -81 61 -246 140 -330 158 -8 2 -37 9 -65 15
-45 11 -298 24 -306 16z"/>
</g>
</svg>
